# xmcd
#
# Track frame offsets: 
#        150
#        23628
#        45863
#        63824
#        92886
#        106441
#        121917
#        135350
#        155459
#        179758
#        201646
#        217928
#        233045
#        248640
#        265844
#        281616
#        300640
#        316668
#        328985
#
# Disc length: 4562 seconds
#
# Revision: 9
# Processed by: cddbd v1.5.2PL0 Copyright (c) Steve Scherf et al.
# Submitted via: ExactAudioCopyFreeDBPlugin 1.0
#
DISCID=0511d013
DTITLE=Various Artist - 2001 - The All Time Greatest Songs [Blues] Cd
DTITLE=2
DYEAR=2001
DGENRE=Blues
TTITLE0=Tony Joe White - [You're Gonna Look] Good In Blues
TTITLE1=Canned Heat - On The Road Again
TTITLE2=Stevie Ray Vaughan - Cold Shot
TTITLE3=The Jeff Healey Band - I Think I Love You Too Much
TTITLE4=John Lee Hooker - One Bourbon, One Scotch, One Beer
TTITLE5=Cuby and The Blizzards - Window Of My Eyes
TTITLE6=Eddie Boyd [With Peter Green] - She's Real
TTITLE7=Buddy Guy - Damn Right, I've Got The Blues
TTITLE8=Barrelhouse - The Sudden Stop
TTITLE9=Keb Mo' - More Than One Way Home
TTITLE10=Billy Boy Arnold - I Wish You Would
TTITLE11=The Fabulous Thunderbirds - Tuff Enuff
TTITLE12=Taj Mahal - She Caught The Katy and Left Me A Mule To Ride
TTITLE13=Fleetwood Mac - Need Your Love So Bad
TTITLE14=Bobby Bland - Do What You Set Out To Do
TTITLE15=Livin' Blues - L.B. Boogie
TTITLE16=John Mayall - All Your Love
TTITLE17=Johnny Winter - Johnny B. Goode
TTITLE18=Eric Clapton - Blues Before Sunrise
EXTD=YEAR: 2001
EXTT0=
EXTT1=
EXTT2=
EXTT3=
EXTT4=
EXTT5=
EXTT6=
EXTT7=
EXTT8=
EXTT9=
EXTT10=
EXTT11=
EXTT12=
EXTT13=
EXTT14=
EXTT15=
EXTT16=
EXTT17=
EXTT18=
PLAYORDER=
